<?xml version="1.0" encoding="UTF-8"?>
<svg id="Layer_1" data-name="Layer 1" xmlns="http://www.w3.org/2000/svg" xmlns:xlink="http://www.w3.org/1999/xlink" viewBox="0 0 58 58">
  <defs>
    <style>
      .cls-1 {
        fill: url(#linear-gradient-2);
      }

      .cls-2 {
        fill: #107b5f;
      }

      .cls-3 {
        fill: url(#linear-gradient);
      }
    </style>
    <linearGradient id="linear-gradient" x1="20.84" y1="30.3" x2="38.74" y2="30.3" gradientUnits="userSpaceOnUse">
      <stop offset="0" stop-color="#8abf42"/>
      <stop offset="1" stop-color="#107b5f"/>
    </linearGradient>
    <linearGradient id="linear-gradient-2" x1="29" y1="57.61" x2="29" y2=".28" gradientTransform="translate(0 58.55) scale(1 -1)" xlink:href="#linear-gradient"/>
  </defs>
  <path class="cls-3" d="m36.5,29.18v2.24s.06,0,.09,0c.33,0,.65,0,.98,0,.48,0,.84.2,1.05.65.33.7-.12,1.51-.9,1.57-.37.03-.74.01-1.12.02-.03,0-.07,0-.11,0v.11c0,1.44,0,2.87,0,4.31,0,.38-.12.71-.43.94-.47.34-1.13.34-1.54-.18-.3-.39-.58-.79-.86-1.19-.91-1.27-1.82-2.54-2.72-3.82-.09-.13-.19-.17-.34-.17-1.73,0-3.45,0-5.18,0h-.11v.1c0,1.44,0,2.88,0,4.32,0,.37-.12.7-.42.92-.33.25-.71.33-1.1.16-.41-.17-.64-.49-.69-.93-.01-.1-.02-.2-.02-.3,0-1.39,0-2.77,0-4.16,0-.03,0-.07,0-.11-.04,0-.07,0-.1,0-.31,0-.63,0-.94,0-.63,0-1.09-.38-1.18-1.01-.05-.32.07-.59.27-.84.24-.28.55-.39.91-.39.31,0,.62,0,.93,0,.03,0,.06,0,.1,0v-2.24s-.06,0-.09,0c-.31,0-.62,0-.93,0-.63,0-1.09-.38-1.19-1-.05-.32.07-.6.27-.84.24-.29.56-.4.93-.4.34,0,.68,0,1.03,0,0-.04,0-.08,0-.11,0-1.43,0-2.86,0-4.29,0-.47.2-.83.6-1.06.42-.24,1.04-.13,1.34.25.3.38.57.79.85,1.18.95,1.32,1.89,2.65,2.84,3.97.02.03.07.06.1.06,1.79,0,3.59,0,5.38,0,.02,0,.03,0,.06,0v-.11c0-1.43,0-2.86,0-4.29,0-.47.19-.84.6-1.06.64-.35,1.53.03,1.62.85.01.12.02.25.02.37,0,1.37,0,2.75,0,4.12,0,.03,0,.06,0,.11.03,0,.07,0,.1,0,.32,0,.64,0,.96,0,.4,0,.75.15.98.49.48.69.04,1.66-.8,1.73-.37.03-.75.02-1.13.02-.03,0-.07,0-.11,0Zm-11.18,2.23h3.9s-.01-.03-.02-.04c-.51-.72-1.02-1.43-1.53-2.15-.03-.05-.07-.05-.12-.05-.72,0-1.43,0-2.15,0-.03,0-.05,0-.08,0v2.23Zm8.94-2.23h-3.89s0,.02.01.03c.51.71,1.02,1.43,1.53,2.14.03.05.07.06.12.06.72,0,1.43,0,2.15,0,.03,0,.05,0,.08,0v-2.23Zm-8.92-3.21s-.01,0-.02.01v.95h.7c-.23-.33-.46-.64-.69-.96Zm8.21,7.68c.24.33.47.65.71.99v-.99h-.71Z"/>
  <path class="cls-1" d="m29,58.28C13.19,58.28.33,45.42.33,29.61S13.19.94,29,.94c1.09,0,2,.91,2,2s-.91,2-2,2c-13.6,0-24.67,11.07-24.67,24.67s11.07,24.67,24.67,24.67,24.67-11.07,24.67-24.67c0-1.09.91-2,2-2s2,.91,2,2c0,15.81-12.85,28.67-28.67,28.67Z"/>
  <path class="cls-2" d="m55.67,15.61c-1.09,0-2-.91-2-2V4.94h-8.67c-1.09,0-2-.91-2-2s.91-2,2-2h10.67c1.09,0,2,.91,2,2v10.67c0,1.09-.91,2-2,2Z"/>
  <path class="cls-2" d="m42.33,18.28c-.51,0-1.01-.19-1.41-.59-.77-.77-.77-2.05,0-2.83L54.25,1.53c.77-.77,2.05-.77,2.83,0,.77.77.77,2.05,0,2.83l-13.33,13.33c-.4.4-.91.59-1.41.59Z"/>
</svg>