<?xml version="1.0" encoding="UTF-8"?>
<svg id="Layer_1" data-name="Layer 1" xmlns="http://www.w3.org/2000/svg" xmlns:xlink="http://www.w3.org/1999/xlink" viewBox="0 0 58 58">
  <defs>
    <style>
      .cls-1 {
        fill: url(#linear-gradient-2);
      }

      .cls-2 {
        fill: #107b5f;
      }

      .cls-3 {
        fill: url(#linear-gradient);
      }
    </style>
    <linearGradient id="linear-gradient" x1=".37" y1="30.53" x2="53.64" y2="30.53" gradientUnits="userSpaceOnUse">
      <stop offset="0" stop-color="#8abf42"/>
      <stop offset="1" stop-color="#107b5f"/>
    </linearGradient>
    <linearGradient id="linear-gradient-2" x1="24.06" y1="18.12" x2="57.63" y2="18.12" xlink:href="#linear-gradient"/>
  </defs>
  <path class="cls-3" d="m31.39,55.74c2.45.71,4.99,1.08,7.55,1.1,4.15.15,8.22-1.23,11.42-3.88,2.85-2.51,3.94-5.81,2.9-9.03-.65-2.15-3.71-3.21-5.47-3.65-6.4-1.6-7.79-1.97-10.98-2.89-1.97-.56-3.16,1.25-4.02,2.58-.45.71-1.41,2.18-1.84,2.07-5.9-1.54-13.14-10.94-15.41-14.92,1-1.12,2.16-2.09,3.43-2.88,1.13-.8,2.11-1.49,1.76-2.86s-3.22-12.79-3.36-13.39c-1.18-4.31-3.15-4.1-6.84-3.35l-.83.17c-3.84.78-6.89,3.75-8.37,8.17C-.81,19.29.07,30.49,9.55,41.24c6.35,7.19,14.1,12.36,21.84,14.51Z"/>
  <path class="cls-1" d="m27.9,29.67v3.48c0,.74.42,1.41,1.08,1.74.27.13.56.2.86.2.45,0,.88-.15,1.23-.42l5.9-4.68h14.88c3.19,0,5.77-2.58,5.78-5.77V6.91c0-3.19-2.59-5.77-5.78-5.77h-21.99c-3.19-.02-5.79,2.56-5.81,5.75,0,0,0,.01,0,.02v17.34c0,2.44,1.54,4.61,3.84,5.42Zm.1-22.76c0-1.01.82-1.83,1.83-1.83.01,0,.03,0,.04,0h21.99c1.01,0,1.83.82,1.84,1.83v17.34c-.03,1-.84,1.79-1.84,1.79h-15.55c-.45,0-.88.15-1.23.43l-3.24,2.61v-1.07c0-1.09-.88-1.97-1.97-1.97-1.01.02-1.85-.78-1.87-1.79,0,0,0,0,0,0V6.91Z"/>
  <path class="cls-2" d="m34.89,11.28h12.79c1.09,0,1.97-.88,1.97-1.97s-.88-1.97-1.97-1.97h-12.79c-1.09,0-1.97.88-1.97,1.97s.88,1.97,1.97,1.97Z"/>
  <path class="cls-2" d="m34.89,17.18h12.79c1.09,0,1.97-.88,1.97-1.97s-.88-1.97-1.97-1.97h-12.79c-1.09,0-1.97.88-1.97,1.97s.88,1.97,1.97,1.97Z"/>
  <path class="cls-2" d="m34.89,23.09h12.79c1.09,0,1.97-.88,1.97-1.97s-.88-1.97-1.97-1.97h-12.79c-1.09,0-1.97.88-1.97,1.97s.88,1.97,1.97,1.97Z"/>
</svg>