<?xml version="1.0" encoding="UTF-8"?>
<svg id="Layer_1" data-name="Layer 1" xmlns="http://www.w3.org/2000/svg" xmlns:xlink="http://www.w3.org/1999/xlink" viewBox="0 0 58 58">
  <defs>
    <style>
      .cls-1 {
        fill: url(#linear-gradient);
      }
    </style>
    <linearGradient id="linear-gradient" x1=".56" y1="29" x2="57.44" y2="29" gradientUnits="userSpaceOnUse">
      <stop offset="0" stop-color="#8abf42"/>
      <stop offset="1" stop-color="#107b5f"/>
    </linearGradient>
  </defs>
  <path class="cls-1" d="m53.23,41.6c.13,4.6-.74,6.07-1.27,6.21-.53.14-2.01-.7-4.2-4.74-1.96-3.62-3.85-8.64-5.32-14.13-1.47-5.49-2.34-10.78-2.46-14.89-.13-4.6.74-6.07,1.27-6.21.04,0,.08-.01.12-.01.61,0,2.04.98,4.08,4.76,1.96,3.62,3.85,8.64,5.32,14.13,1.47,5.49,2.34,10.78,2.46,14.89h0Zm4.09,2.86c-.4,4.96-1.83,8.12-3.93,8.69-2.09.56-4.92-1.46-7.74-5.56-3.03-4.39-5.71-10.6-7.56-17.49-1.85-6.89-2.62-13.61-2.2-18.92.4-4.96,1.83-8.13,3.93-8.69,2.1-.56,4.92,1.47,7.74,5.56,3.03,4.39,5.71,10.6,7.56,17.48,1.85,6.89,2.63,13.61,2.2,18.92h0Zm-2.45-2.91c-.12-4.24-1.01-9.66-2.51-15.28-1.5-5.61-3.44-10.75-5.46-14.48-2.25-4.16-4.29-6.03-6.07-5.55-1.78.48-2.61,3.12-2.48,7.84.12,4.24,1.01,9.66,2.51,15.27,1.5,5.61,3.44,10.76,5.46,14.48,2.02,3.74,3.88,5.62,5.52,5.62.19,0,.37-.02.55-.07,1.78-.48,2.62-3.11,2.48-7.84h0Zm-20.62,6.92c-3.83,1.45-9.14,2.28-14.72,2.28s-10.45-.75-14.28-2.12c-2.04-.73-3.63-1.6-4.7-2.58v3.29c0,1.07,1.02,2.18,2.86,3.17v-1.74h1.65v2.5c1.26.51,2.77.96,4.47,1.32v-2.08h1.65v2.4c1.39.24,2.88.42,4.47.53v-2.17h1.65v2.26c.73.03,1.47.05,2.24.05s1.5-.02,2.24-.05v-2.26h1.65v2.17c1.56-.11,3.06-.29,4.47-.52v-2.41h1.65v2.1c2.96-.63,5.42-1.53,7.05-2.64-.28-.37-.56-.76-.84-1.16-.51-.73-1-1.51-1.49-2.34h0ZM3.42,39.56v-1.72h1.65v2.48c1.26.51,2.77.96,4.47,1.32v-2.06h1.65v2.38c1.39.24,2.88.42,4.47.53v-2.15h1.65v2.24c.73.03,1.47.05,2.24.05s1.5-.02,2.24-.05v-2.24h1.65v2.14c2.65-.19,5.17-.58,7.37-1.14-.58-1.42-1.12-2.91-1.62-4.43-2.94.57-6.26.88-9.63.88-5.38,0-10.45-.75-14.28-2.12-2.04-.73-3.63-1.6-4.7-2.58v3.3c0,1.07,1.02,2.18,2.86,3.17h0Zm16.12-9.9c2.63,0,5.15-.18,7.52-.54-.88-4.08-1.38-8.02-1.46-11.59-1.94-.23-3.98-.34-6.06-.34-11.18,0-18.98,3.29-18.98,6.24s7.79,6.23,18.98,6.23h0Zm-16.12,3.42v-1.73h1.65v2.49c1.26.51,2.77.96,4.47,1.32v-2.07h1.65v2.39c1.39.24,2.88.42,4.47.53v-2.16h1.65v2.25c.73.03,1.47.05,2.24.05s1.5-.02,2.24-.05v-2.25h1.65v2.16c1.83-.13,3.6-.36,5.25-.67-.25-.83-.49-1.66-.72-2.51-.19-.7-.36-1.4-.53-2.09-2.49.38-5.13.57-7.89.57-5.38,0-10.45-.75-14.28-2.11-2.04-.73-3.63-1.6-4.7-2.58v3.29c0,1.07,1.02,2.18,2.86,3.17Zm40.88,15.45c-3.13-4.54-5.9-10.93-7.8-18-1.89-7.06-2.69-13.98-2.25-19.48.26-3.28.97-5.86,2.05-7.61-.46.12-.93.25-1.39.37-1.21.33-2.43.65-3.64.98-1.62.43-2.84,2.43-3.5,5.61l2.85-.77.43,1.59-3.57.96c-.05.42-.1.85-.13,1.3-.14,1.76-.15,3.67-.03,5.69l3.18-.85.43,1.59-3.48.93c.19,2.14.52,4.39.97,6.68l3.24-.87.43,1.59-3.33.89c.24,1.08.5,2.17.8,3.26.29,1.09.61,2.17.94,3.22l3.33-.89.43,1.59-3.24.87c.76,2.22,1.6,4.32,2.5,6.28l3.48-.93.43,1.59-3.18.85c.91,1.81,1.87,3.46,2.88,4.91.26.37.51.72.77,1.06l3.58-.96.43,1.59-2.86.76c2.16,2.42,4.21,3.54,5.83,3.1l1.83-.49c1.07-.29,2.13-.57,3.2-.86-1.81-.98-3.71-2.86-5.57-5.57h0Zm-40.88-2.48v-1.71h1.65v2.47c1.26.51,2.77.96,4.47,1.32v-2.05h1.65v2.37c1.39.24,2.88.42,4.47.53v-2.14h1.65v2.23c.73.03,1.47.05,2.24.05s1.5-.02,2.24-.05v-2.23h1.65v2.14c1.55-.11,3.05-.29,4.47-.53v-2.37h1.65v2.06c1.42-.3,2.74-.67,3.91-1.1-.7-1.3-1.37-2.68-2.01-4.14-3.47.91-7.57,1.39-11.9,1.39-5.38,0-10.45-.75-14.28-2.11-2.04-.73-3.63-1.6-4.7-2.58v3.29c0,1.07,1.02,2.18,2.86,3.17h0Z"/>
</svg>